<?xml version="1.0" standalone="no"?>
<!DOCTYPE svg PUBLIC "-//W3C//DTD SVG 20010904//EN"
 "http://www.w3.org/TR/2001/REC-SVG-20010904/DTD/svg10.dtd">
<svg version="1.0" xmlns="http://www.w3.org/2000/svg"
 width="600.000000pt" height="600.000000pt" viewBox="0 0 600.000000 600.000000"
 preserveAspectRatio="xMidYMid meet">

<g transform="translate(0.000000,600.000000) scale(0.100000,-0.100000)"
fill="#000000" stroke="none">
<path d="M0 5706 l0 -294 26 -16 c33 -22 31 -69 -3 -74 -22 -3 -23 -8 -23 -83
0 -43 4 -79 9 -79 14 0 45 -104 38 -124 -9 -22 -27 -20 -27 3 0 11 -4 23 -10
26 -7 4 -10 -842 -10 -2529 l0 -2536 2856 0 c2715 0 2855 1 2850 18 -37 127
-57 257 -44 291 8 23 9 23 29 5 22 -20 118 -211 139 -277 l12 -37 79 0 79 0 0
3000 0 3000 -1870 0 c-1028 0 -1870 -1 -1870 -2 0 -2 14 -56 30 -122 33 -131
38 -200 15 -222 -16 -16 -35 -11 -35 10 0 7 -13 43 -30 79 -16 36 -44 108 -61
161 l-31 96 -1074 0 -1074 0 0 -294z m2044 264 c31 -11 34 -40 7 -64 -39 -35
-96 25 -59 62 15 15 19 15 52 2z m-1325 -63 c18 -23 18 -61 -1 -65 -20 -4 -53
42 -44 63 7 19 30 19 45 2z m2131 -79 c0 -15 4 -28 9 -28 8 0 20 -25 39 -86
16 -50 -1 -59 -27 -14 -27 49 -63 169 -54 183 10 16 33 -23 33 -55z m-2561
-22 c8 -10 8 -16 -3 -25 -10 -9 -16 -8 -26 3 -12 15 -6 36 9 36 5 0 14 -6 20
-14z m4501 -96 c10 0 20 -10 24 -22 10 -39 -10 -40 -43 -3 -31 36 -44 70 -15
41 8 -9 24 -16 34 -16z m-1782 -40 c44 -66 18 -92 -45 -44 -36 27 -43 57 -15
73 24 14 34 10 60 -29z m1587 -20 c3 -5 1 -10 -4 -10 -6 0 -11 5 -11 10 0 6 2
10 4 10 3 0 8 -4 11 -10z m739 -62 c21 -29 20 -58 0 -58 -22 0 -43 29 -44 58
0 29 24 29 44 0z m-1730 -38 c16 0 41 -32 40 -50 -5 -42 -17 -60 -36 -54 -14
4 -18 2 -14 -5 10 -16 -59 -14 -73 2 -6 8 -8 17 -4 21 4 4 2 10 -5 14 -16 11
4 82 23 83 29 3 33 4 42 12 4 5 9 2 11 -7 2 -9 9 -16 16 -16z m1169 -9 c20
-35 22 -51 4 -51 -19 0 -70 57 -63 69 13 20 42 11 59 -18z m-3239 -100 c27
-52 -1 -67 -46 -24 -32 30 -36 60 -10 65 21 5 40 -8 56 -41z m-1274 -11 c0 -5
-5 -12 -11 -16 -14 -8 -33 11 -25 25 7 11 36 4 36 -9z m1030 -10 c0 -5 -4 -10
-10 -10 -5 0 -10 5 -10 10 0 6 5 10 10 10 6 0 10 -4 10 -10z m2480 -23 c0 -8
6 -27 14 -43 8 -16 16 -42 18 -59 6 -60 -64 -36 -77 27 -4 17 -16 33 -28 37
-15 6 -17 10 -8 16 8 4 16 2 21 -5 5 -9 13 -5 26 14 21 28 34 33 34 13z
m-3084 -23 c71 -33 71 -58 1 -61 -55 -2 -87 20 -87 62 0 32 17 32 86 -1z
m4191 4 c44 -48 141 -229 196 -366 40 -97 22 -73 -34 46 -72 153 -71 152 -80
146 -5 -3 -6 2 -3 10 4 9 1 16 -6 16 -8 0 -10 -8 -6 -22 4 -13 14 -51 22 -85
15 -61 40 -91 29 -35 -5 25 -5 25 4 4 6 -12 8 -29 5 -37 -4 -9 0 -15 10 -15
10 0 13 -6 9 -16 -5 -13 -7 -13 -14 -2 -6 8 -9 0 -9 -24 0 -25 5 -38 13 -38
10 0 14 -17 16 -57 3 -87 11 -123 28 -123 9 0 13 -6 10 -14 -3 -8 3 -23 14
-34 21 -23 25 -52 8 -52 -5 0 -7 -5 -4 -11 4 -6 13 -8 20 -5 12 4 35 -33 35
-57 0 -7 6 -19 12 -25 7 -7 13 -20 13 -30 0 -9 12 -22 26 -29 15 -7 30 -24 33
-38 8 -33 26 -32 26 1 0 22 2 25 15 14 8 -7 12 -17 9 -24 -3 -6 2 -2 10 8 9
11 19 16 23 12 4 -4 1 -11 -6 -15 -7 -5 -10 -14 -7 -20 4 -6 12 -9 17 -6 5 4
14 -6 19 -21 7 -18 14 -24 21 -17 6 6 2 26 -12 57 -11 26 -19 56 -16 67 3 10
1 19 -4 21 -5 2 -11 21 -14 43 -2 22 -2 32 1 23 7 -24 18 -23 37 5 l16 22 0
-22 c1 -23 21 -33 21 -11 0 28 60 -56 103 -144 137 -281 256 -634 257 -761 0
-43 -2 -47 -19 -38 -26 14 -84 116 -147 256 -30 66 -54 114 -54 107 0 -7 -9
-11 -23 -8 -18 3 -26 -3 -36 -25 -11 -25 -15 -27 -27 -15 -8 8 -14 24 -14 35
0 32 -20 25 -21 -6 -1 -21 -2 -23 -6 -8 -11 44 -26 40 -19 -5 7 -45 26 -80 26
-48 0 24 19 32 27 13 3 -10 0 -21 -8 -25 -10 -7 -11 -14 -2 -32 7 -13 17 -41
24 -63 11 -38 25 -70 83 -197 14 -31 26 -59 26 -62 0 -3 25 -58 55 -123 31
-65 60 -127 64 -138 5 -11 22 -49 38 -85 63 -137 74 -163 117 -269 25 -61 44
-124 44 -141 -1 -33 11 -56 13 -24 1 10 7 -3 14 -31 16 -59 41 -131 56 -162 6
-11 8 -26 5 -32 -4 -6 -3 -11 2 -11 5 0 14 -22 19 -50 6 -27 8 -50 6 -50 -11
0 -78 70 -103 109 -38 60 -78 118 -144 213 -30 42 -52 79 -48 82 3 3 0 6 -6 6
-7 0 -12 8 -12 18 0 10 -4 22 -8 28 -14 14 -71 165 -78 204 -4 19 -13 47 -20
62 -8 14 -21 48 -30 75 -9 26 -26 71 -39 98 -13 28 -31 78 -41 112 -10 34 -21
60 -26 57 -4 -3 -11 13 -14 36 -4 22 -11 43 -15 46 -5 3 -9 15 -9 26 0 11 -9
36 -21 55 -12 18 -18 40 -15 48 3 8 1 15 -4 15 -6 0 -10 12 -10 28 0 15 -6 39
-14 53 -7 15 -11 39 -9 53 3 14 1 32 -5 39 -5 6 -12 29 -16 49 -4 21 -25 70
-48 110 -133 235 -293 649 -383 996 -63 240 -58 356 12 280z m-2077 -124 c0
-17 6 -37 14 -43 7 -6 14 -23 14 -37 0 -15 14 -55 33 -90 30 -59 34 -85 10
-70 -35 22 -122 270 -105 298 11 18 34 -22 34 -58z m-2282 1 c16 -35 15 -55
-3 -55 -24 0 -55 32 -55 57 0 34 43 32 58 -2z m371 -40 c9 -9 -10 -36 -31 -44
-33 -13 -54 9 -38 39 9 17 17 20 38 15 15 -4 29 -8 31 -10z m1231 -345 c64
-179 135 -379 159 -445 83 -234 193 -542 241 -675 26 -74 70 -198 98 -275 131
-366 297 -832 334 -937 22 -65 43 -118 47 -118 3 0 25 53 48 118 23 64 74 207
113 317 40 110 87 243 105 295 37 105 124 350 234 655 40 110 90 250 111 310
22 61 67 187 100 280 34 94 88 244 121 335 32 91 83 233 112 315 l54 150 292
5 c161 3 294 3 296 0 1 -3 -21 -68 -49 -145 -29 -77 -82 -223 -118 -325 -37
-102 -97 -268 -133 -370 -37 -102 -86 -239 -110 -305 -24 -66 -102 -284 -174
-485 -73 -201 -147 -408 -166 -460 -19 -52 -82 -228 -141 -390 -58 -162 -128
-356 -155 -430 -26 -74 -82 -229 -124 -345 -42 -115 -94 -259 -115 -320 -21
-60 -48 -135 -59 -165 -93 -252 -231 -640 -231 -649 0 -20 -18 -12 -23 12 -3
12 -42 123 -87 247 -45 124 -97 268 -115 320 -19 52 -66 183 -105 290 -39 107
-86 238 -104 290 -19 52 -71 196 -116 320 -107 295 -144 399 -365 1015 -29 83
-88 245 -130 360 -42 116 -92 253 -110 305 -31 89 -69 194 -225 625 -34 94
-83 231 -110 305 -27 74 -62 172 -79 216 -16 45 -28 83 -26 85 2 2 135 2 296
-1 l292 -5 117 -325z m-1460 274 c0 -47 -13 -69 -51 -88 -70 -35 -87 -8 -24
36 30 22 48 42 52 60 8 40 23 34 23 -8z m1909 8 c29 -41 38 -82 17 -82 -23 0
-76 50 -76 71 0 14 21 36 37 39 1 0 11 -13 22 -28z m-1639 -62 c0 -5 -2 -10
-4 -10 -3 0 -8 5 -11 10 -3 6 -1 10 4 10 6 0 11 -4 11 -10z m4338 -170 c3 -7
0 -10 -6 -6 -6 3 -13 0 -15 -6 -3 -7 -6 -2 -6 10 -1 25 19 26 27 2z m-2231
-42 c-3 -8 -6 -5 -6 6 -1 11 2 17 5 13 3 -3 4 -12 1 -19z m2018 -17 c3 -5 1
-12 -5 -16 -5 -3 -10 1 -10 9 0 18 6 21 15 7z m-4725 -61 c0 -32 -16 -76 -38
-102 -18 -22 -52 -24 -52 -3 0 8 5 15 10 15 24 0 50 41 50 80 0 29 4 40 15 40
10 0 15 -10 15 -30z m2095 -96 c25 -63 35 -106 33 -131 l-3 -38 -26 50 c-26
48 -69 174 -69 199 0 7 7 13 15 13 9 0 28 -35 50 -93z m1195 -98 c0 -3 -4 -8
-10 -11 -5 -3 -10 -1 -10 4 0 6 5 11 10 11 6 0 10 -2 10 -4z m1630 -77 c0 -5
-4 -9 -10 -9 -5 0 -10 7 -10 16 0 8 5 12 10 9 6 -3 10 -10 10 -16z m-617 -235
c12 -14 26 -35 30 -47 6 -17 2 -15 -17 8 -13 17 -28 27 -32 22 -4 -4 0 -13 10
-20 10 -7 19 -25 19 -39 1 -14 5 -24 10 -21 4 2 7 -7 7 -21 0 -14 4 -26 10
-26 5 0 7 -6 4 -14 -3 -8 6 -43 20 -78 14 -34 29 -81 35 -103 12 -51 30 -103
48 -137 17 -34 11 -36 -18 -5 -20 20 -21 20 -14 2 4 -11 10 -28 12 -37 3 -10
9 -18 14 -18 5 0 9 -5 9 -12 0 -15 42 -78 53 -78 4 0 7 7 7 16 0 8 5 12 10 9
14 -8 13 -52 -2 -61 -52 -32 -238 437 -252 637 -4 55 4 60 37 23z m-1927 -85
c4 -8 28 -10 71 -6 51 5 65 3 70 -8 12 -33 -14 -43 -109 -39 -100 4 -123 16
-87 47 24 20 45 22 55 6z m1693 -75 c-20 -24 -31 7 -16 45 l12 32 8 -31 c5
-21 4 -37 -4 -46z m-4 -34 c-3 -5 -10 -10 -16 -10 -5 0 -9 5 -9 10 0 6 7 10
16 10 8 0 12 -4 9 -10z m605 -114 c0 -6 -5 -4 -11 4 -8 11 -9 8 -4 -15 4 -16
13 -37 21 -46 8 -8 14 -25 14 -37 0 -11 7 -28 16 -36 8 -9 12 -16 9 -16 -4 0
3 -17 16 -37 12 -21 32 -68 44 -106 12 -37 25 -64 29 -60 4 4 4 0 0 -10 -3 -9
-1 -23 5 -31 6 -7 22 -45 35 -83 13 -38 28 -78 34 -89 9 -16 44 -105 66 -167
3 -10 10 -16 15 -12 14 8 31 -58 38 -147 5 -72 4 -78 -13 -78 -41 0 -152 220
-245 483 -41 115 -79 249 -113 400 -4 15 -13 27 -20 27 -13 0 -26 20 -26 41 0
5 9 9 20 9 13 0 20 7 20 18 0 10 3 22 7 25 8 9 43 -22 43 -37z m559 -51 c0 -5
-7 -1 -15 10 -15 19 -16 18 -9 -15 4 -19 4 -32 0 -28 -4 4 -9 33 -10 65 l-2
58 18 -40 c10 -22 18 -44 18 -50z m8 -37 c-3 -8 -6 -5 -6 6 -1 11 2 17 5 13 3
-3 4 -12 1 -19z m-112 -7 c3 -5 1 -12 -5 -16 -5 -3 -10 1 -10 9 0 18 6 21 15
7z m-4955 -796 c0 -16 -27 -32 -37 -22 -3 4 -3 13 0 22 8 20 37 20 37 0z m910
-69 c0 -3 -4 -8 -10 -11 -5 -3 -10 -1 -10 4 0 6 5 11 10 11 6 0 10 -2 10 -4z
m3925 -26 c-3 -5 -13 -10 -21 -10 -8 0 -14 5 -14 10 0 6 9 10 21 10 11 0 17
-4 14 -10z m-631 -2196 c3 -8 2 -12 -4 -9 -6 3 -10 10 -10 16 0 14 7 11 14 -7z
m-1514 -159 c11 -13 10 -14 -4 -9 -9 3 -16 10 -16 15 0 13 6 11 20 -6z m-2219
-315 c25 -34 37 -92 18 -88 -15 3 -52 59 -64 96 -6 19 -4 23 10 20 10 -1 26
-14 36 -28z"/>
<path d="M3525 5450 c3 -5 8 -10 11 -10 2 0 4 5 4 10 0 6 -5 10 -11 10 -5 0
-7 -4 -4 -10z"/>
<path d="M4887 5316 c-4 -10 -3 -15 2 -12 5 4 7 -13 5 -36 l-3 -43 8 40 c9 43
0 82 -12 51z"/>
<path d="M4920 5266 c0 -8 4 -17 9 -20 5 -4 7 3 4 14 -6 23 -13 26 -13 6z"/>
<path d="M4851 5204 c0 -11 3 -14 6 -6 3 7 2 16 -1 19 -3 4 -6 -2 -5 -13z"/>
<path d="M4861 5164 c0 -11 3 -14 6 -6 3 7 2 16 -1 19 -3 4 -6 -2 -5 -13z"/>
<path d="M4870 5116 c0 -9 30 -14 35 -6 4 6 -3 10 -14 10 -12 0 -21 -2 -21 -4z"/>
<path d="M4895 5080 c3 -5 8 -10 11 -10 2 0 4 5 4 10 0 6 -5 10 -11 10 -5 0
-7 -4 -4 -10z"/>
<path d="M4897 5048 c-9 -29 105 -374 123 -370 7 2 9 -5 5 -18 -4 -11 1 -34 9
-52 9 -17 16 -37 16 -45 0 -8 5 -11 12 -7 7 4 8 3 4 -5 -7 -11 93 -265 101
-257 3 2 -3 21 -12 42 -8 21 -13 44 -11 51 3 7 0 12 -6 10 -13 -2 -30 51 -24
76 2 10 0 14 -6 11 -6 -4 -8 2 -3 16 5 15 3 20 -3 16 -6 -3 -13 4 -17 16 -31
113 -50 158 -63 153 -10 -4 -12 0 -8 11 3 8 6 18 6 20 0 3 4 2 10 -1 6 -3 7 1
4 10 -6 14 -8 14 -18 -1 -10 -13 -12 -9 -9 22 2 30 1 35 -6 19 -5 -11 -10 -15
-10 -8 -1 6 -4 19 -7 27 -5 12 -2 15 10 10 26 -10 20 43 -9 78 -14 16 -25 35
-26 41 -2 36 -9 70 -15 76 -4 3 -5 -4 -2 -15 3 -12 2 -28 -3 -35 -5 -9 -7 10
-5 45 3 37 1 54 -5 45 -7 -11 -9 -11 -9 3 0 21 -17 33 -23 16z m140 -410 c-3
-8 -6 -5 -6 6 -1 11 2 17 5 13 3 -3 4 -12 1 -19z"/>
<path d="M5351 4534 c0 -11 3 -14 6 -6 3 7 2 16 -1 19 -3 4 -6 -2 -5 -13z"/>
<path d="M5360 4390 c-1 -14 -4 -19 -7 -12 -2 6 -9 10 -14 6 -15 -9 -10 -32
10 -51 10 -10 22 -33 26 -50 6 -32 25 -56 25 -33 0 6 5 8 11 5 7 -5 5 -15 -6
-32 -15 -23 -15 -26 2 -38 10 -7 15 -17 11 -20 -4 -4 -2 -17 4 -29 11 -20 12
-20 24 9 7 17 13 23 14 13 0 -9 4 -18 9 -20 4 -1 12 -14 15 -28 7 -23 6 -23
-13 5 -14 21 -21 25 -21 13 0 -25 30 -52 43 -39 8 8 -3 39 -36 106 -26 52 -47
99 -47 103 0 5 -6 22 -13 38 -8 16 -19 40 -25 54 l-11 25 -1 -25z m40 -99 c0
-21 -16 -2 -25 29 -7 24 -7 24 9 5 8 -11 16 -27 16 -34z"/>
<path d="M5308 4370 c2 -16 6 -30 8 -30 2 0 4 14 4 30 0 17 -4 30 -8 30 -5 0
-7 -13 -4 -30z"/>
<path d="M5341 4264 c0 -11 3 -14 6 -6 3 7 2 16 -1 19 -3 4 -6 -2 -5 -13z"/>
<path d="M5361 4244 c0 -11 3 -14 6 -6 3 7 2 16 -1 19 -3 4 -6 -2 -5 -13z"/>
<path d="M5341 4224 c0 -11 3 -14 6 -6 3 7 2 16 -1 19 -3 4 -6 -2 -5 -13z"/>
<path d="M5360 4145 c0 -8 2 -15 4 -15 2 0 6 7 10 15 3 8 1 15 -4 15 -6 0 -10
-7 -10 -15z"/>
<path d="M5440 4078 c0 -15 5 -30 10 -33 13 -8 13 25 0 45 -8 12 -10 9 -10
-12z"/>
<path d="M5292 3210 c0 -14 2 -19 5 -12 2 6 2 18 0 25 -3 6 -5 1 -5 -13z"/>
</g>
</svg>
