<?xml version="1.0" standalone="no"?>
<!DOCTYPE svg PUBLIC "-//W3C//DTD SVG 20010904//EN"
 "http://www.w3.org/TR/2001/REC-SVG-20010904/DTD/svg10.dtd">
<svg version="1.0" xmlns="http://www.w3.org/2000/svg"
 width="1052.000000pt" height="1022.000000pt" viewBox="0 0 1052.000000 1022.000000"
 preserveAspectRatio="xMidYMid meet">

<g transform="translate(0.000000,1022.000000) scale(0.100000,-0.100000)"
fill="#000000" stroke="none">
<path d="M0 5110 l0 -5090 5260 0 5260 0 0 5090 0 5090 -5260 0 -5260 0 0
-5090z m8171 1854 c55 -28 59 -53 59 -374 l0 -290 108 0 c71 0 112 -4 120 -12
17 -17 17 -319 0 -336 -8 -8 -49 -12 -120 -12 l-108 0 0 -830 0 -830 108 0
c71 0 112 -4 120 -12 17 -17 17 -319 0 -336 -8 -8 -49 -12 -120 -12 l-108 0 0
-295 c0 -335 -3 -355 -64 -380 -31 -13 -408 -15 -2901 -15 -3082 0 -2903 -3
-2950 50 -19 21 -20 38 -23 326 l-3 304 -102 0 c-67 0 -107 4 -115 12 -17 17
-17 319 0 336 8 8 48 12 115 12 l103 0 0 830 0 830 -103 0 c-67 0 -107 4 -115
12 -17 17 -17 319 0 336 8 8 48 12 115 12 l103 0 0 303 c0 333 -1 329 64 368
30 19 94 19 2909 19 2593 0 2881 -2 2908 -16z"/>
<path d="M2660 5105 l0 -1515 2605 0 2605 0 0 1515 0 1515 -2605 0 -2605 0 0
-1515z m3471 1148 c140 -6 155 -8 175 -28 56 -56 70 -209 58 -620 -11 -351
-14 -367 -75 -404 l-30 -18 48 -54 c89 -99 85 -70 77 -583 -7 -498 -6 -493
-72 -542 -73 -57 -132 -64 -499 -64 l-333 0 0 484 c0 266 -3 504 -6 529 -5 33
-12 48 -30 58 -23 12 -24 16 -24 143 0 128 0 130 28 159 l27 28 1 427 c0 235
1 439 2 454 l2 27 98 4 c206 6 405 7 553 0z m-2175 -19 c22 -10 43 -33 57 -58
22 -41 22 -45 22 -561 1 -286 -3 -546 -7 -578 -4 -40 -15 -69 -33 -93 -48 -63
-91 -74 -340 -83 l-160 -6 -7 -45 c-3 -25 -7 -230 -7 -456 l-1 -412 -123 -7
c-68 -4 -152 -3 -188 1 l-64 9 -3 481 -2 482 -25 16 c-24 16 -25 20 -25 136 0
111 2 122 23 142 l22 23 5 496 c4 400 8 499 19 512 12 15 53 17 408 17 345 0
399 -2 429 -16z m573 9 l113 -6 -3 -961 c-5 -1102 -12 -1008 86 -1021 30 -3
68 -4 84 0 58 13 56 -25 52 964 -2 498 0 930 4 959 l7 52 184 0 184 0 0 -1043
c0 -1134 1 -1108 -55 -1175 -49 -58 -94 -64 -469 -60 -383 3 -367 0 -419 96
-26 47 -29 66 -38 209 -13 193 -6 1960 7 1973 21 20 90 23 263 13z m2950 -28
l31 -36 0 -244 0 -244 -45 -7 c-56 -8 -241 -1 -252 10 -4 4 -8 42 -9 84 -1 43
-2 94 -3 115 l-1 37 -114 0 -114 0 -7 -206 c-7 -192 3 -1454 11 -1463 2 -2 42
-4 90 -4 62 0 89 4 96 14 5 8 7 60 4 124 -3 61 -9 228 -12 373 -5 183 -11 262
-18 259 -6 -3 -21 -1 -33 4 -22 8 -23 13 -23 131 0 187 -25 168 221 168 l208
0 3 -577 c2 -318 -1 -600 -5 -628 -10 -59 -59 -141 -96 -159 -61 -30 -156 -40
-415 -40 -229 -1 -265 1 -292 16 -48 26 -82 73 -102 141 -18 59 -19 110 -16
1044 3 1072 -1 1008 61 1064 67 61 46 58 439 58 l362 1 31 -35z"/>
<path d="M5873 5923 l-33 -4 0 -295 0 -294 79 0 78 0 7 53 c3 28 6 140 6 247
0 107 -3 219 -6 248 l-7 52 -46 -2 c-25 0 -61 -3 -78 -5z"/>
<path d="M5853 4958 c-4 -7 -10 -164 -11 -349 l-4 -336 78 -6 c42 -4 80 -5 83
-2 9 9 14 506 6 610 l-7 95 -68 0 c-44 0 -72 -5 -77 -12z"/>
<path d="M3534 5913 l-51 -4 -6 -82 c-9 -106 -9 -545 -1 -586 l7 -31 67 0
c110 0 100 -36 100 355 0 367 1 359 -48 353 -9 -1 -40 -3 -68 -5z"/>
</g>
</svg>
