<?xml version="1.0" standalone="no"?>
<!DOCTYPE svg PUBLIC "-//W3C//DTD SVG 20010904//EN"
 "http://www.w3.org/TR/2001/REC-SVG-20010904/DTD/svg10.dtd">
<svg version="1.0" xmlns="http://www.w3.org/2000/svg"
 width="300.000000pt" height="300.000000pt" viewBox="0 0 300.000000 300.000000"
 preserveAspectRatio="xMidYMid meet">

<g transform="translate(0.000000,300.000000) scale(0.100000,-0.100000)"
fill="#000000" stroke="none">
<path d="M0 1500 l0 -1500 1500 0 1500 0 0 1500 0 1500 -1500 0 -1500 0 0
-1500z m1704 1124 c86 -21 125 -42 182 -99 71 -71 86 -117 92 -292 l4 -143
-201 0 -201 0 0 100 c0 88 -2 100 -19 110 -27 14 -104 13 -119 -2 -8 -8 -12
-62 -12 -175 0 -90 2 -163 5 -163 3 0 18 8 32 18 39 25 249 30 325 8 71 -20
136 -65 165 -112 l23 -39 0 -416 c0 -468 -2 -481 -70 -568 -92 -116 -312 -173
-546 -140 -199 27 -308 114 -334 267 -17 96 -9 1372 8 1424 34 100 117 178
226 212 115 37 314 41 440 10z m-877 -164 c-8 -66 -50 -142 -106 -191 -55 -49
-65 -49 -58 -3 9 56 60 155 104 202 54 57 67 55 60 -8z m1387 29 c53 -42 113
-151 130 -238 l6 -33 -28 17 c-74 46 -137 142 -148 229 -8 52 0 56 40 25z
m-1575 -179 c-1 -67 -21 -137 -51 -180 -25 -34 -33 -18 -32 58 1 76 14 132 45
181 27 45 39 28 38 -59z m1770 45 c27 -58 40 -117 41 -182 0 -62 -11 -72 -39
-37 -28 36 -51 116 -51 180 0 94 17 108 49 39z m-1898 -199 c12 -71 1 -188
-19 -208 -5 -5 -18 13 -32 44 -26 60 -31 171 -10 248 l12 43 18 -28 c10 -16
24 -60 31 -99z m2053 -27 c1 -71 -3 -94 -23 -137 -14 -29 -28 -49 -33 -44 -5
5 -13 36 -18 70 -12 71 1 175 28 231 l16 35 14 -35 c9 -19 15 -71 16 -120z
m-1814 25 c-16 -42 -67 -110 -111 -147 -40 -35 -100 -69 -107 -62 -9 9 49 116
82 153 35 38 106 82 133 82 9 0 10 -7 3 -26z m1558 7 c20 -11 53 -37 73 -58
35 -36 89 -130 89 -153 0 -19 -82 31 -130 80 -27 26 -58 66 -69 88 -34 67 -27
76 37 43z m-1899 -156 c34 -51 61 -131 61 -183 l-1 -47 -34 38 c-46 53 -71
111 -78 184 -6 59 -6 62 11 52 10 -6 28 -26 41 -44z m2236 -7 c-8 -75 -42
-152 -86 -193 l-32 -30 6 62 c6 71 41 155 82 196 15 15 30 27 32 27 3 0 2 -28
-2 -62z m-2005 -90 c0 -68 -59 -204 -106 -249 l-23 -22 -6 26 c-10 37 21 144
56 199 43 67 79 87 79 46z m1779 -17 c45 -56 72 -124 79 -194 5 -58 5 -59 -17
-48 -45 24 -102 139 -116 234 -9 61 10 64 54 8z m263 -132 c-29 -66 -92 -145
-134 -169 -43 -24 -44 -21 -23 41 37 105 74 158 134 188 34 18 36 18 39 2 2
-9 -6 -37 -16 -62z m-2302 35 c39 -35 92 -130 104 -186 17 -76 -96 18 -149
125 -19 38 -35 76 -35 83 0 25 40 14 80 -22z m20 -203 c17 -22 39 -59 49 -83
23 -52 38 -138 23 -138 -5 0 -28 21 -52 46 -48 52 -96 149 -106 213 l-7 45 31
-22 c17 -12 45 -40 62 -61z m2293 57 c-22 -100 -75 -203 -130 -254 -37 -34
-46 -30 -38 19 8 52 47 140 82 185 19 26 77 72 90 72 0 0 -1 -10 -4 -22z
m-2102 -50 c27 -81 11 -298 -21 -298 -13 0 -37 71 -45 130 -8 70 21 210 45
210 4 0 13 -19 21 -42z m1866 -5 c26 -69 24 -193 -4 -253 l-21 -45 -18 40
c-12 28 -18 66 -18 125 -1 82 18 180 34 180 5 0 17 -21 27 -47z m-1777 -205
c29 -68 45 -171 36 -231 -9 -57 -22 -57 -53 -1 -32 57 -47 160 -33 228 6 31
15 56 19 56 5 0 19 -24 31 -52z m1696 -35 c7 -69 -15 -169 -47 -215 -27 -37
-38 -27 -46 39 -11 94 52 297 78 251 5 -9 12 -43 15 -75z m-1950 11 c49 -23
121 -91 146 -138 9 -17 7 -18 -28 -11 -81 15 -210 104 -248 172 -8 14 -3 15
34 9 23 -4 67 -18 96 -32z m2284 28 c0 -21 -100 -110 -155 -138 -68 -36 -142
-54 -129 -32 24 42 81 101 120 124 68 40 164 67 164 46z m-2173 -223 c55 -20
106 -65 154 -133 27 -38 49 -73 49 -78 0 -15 -26 -8 -88 23 -67 33 -153 118
-170 169 -10 26 -9 30 8 30 10 0 31 -5 47 -11z m1993 6 c0 -18 -38 -75 -79
-118 -55 -60 -191 -131 -191 -99 0 14 61 98 101 139 45 46 111 83 147 83 12 0
22 -2 22 -5z m-1671 -159 c30 -58 59 -172 47 -183 -3 -3 -20 6 -38 19 -55 42
-102 147 -123 273 l-7 40 45 -44 c25 -24 59 -71 76 -105z m1401 121 c0 -30
-44 -166 -68 -211 -22 -41 -76 -96 -94 -96 -11 0 5 97 24 144 22 56 48 96 92
144 32 34 46 40 46 19z m-1605 -197 c69 -24 151 -74 166 -103 11 -19 9 -20
-57 -15 -38 3 -95 15 -126 27 -63 24 -150 79 -156 99 -6 20 106 15 173 -8z
m1865 12 c0 -15 -44 -49 -95 -75 -70 -35 -150 -57 -207 -57 l-49 0 18 24 c41
56 180 115 271 115 34 1 62 -3 62 -7z m-1552 -184 c28 -11 52 -23 52 -28 0
-18 -83 -40 -152 -40 -71 0 -208 33 -208 51 0 7 64 33 105 43 37 8 149 -6 203
-26z m1336 7 c20 -9 36 -20 36 -25 0 -18 -130 -50 -206 -50 -70 0 -154 22
-154 40 0 8 99 46 140 54 42 7 146 -3 184 -19z m-1109 -128 c55 -19 112 -40
128 -47 42 -20 32 -33 -10 -14 -99 44 -123 48 -182 34 -75 -18 -219 -24 -255
-10 -23 9 -26 13 -16 25 7 8 40 24 74 35 79 26 133 21 261 -23z m915 6 l55
-27 -30 -12 c-43 -19 -176 -17 -252 3 -64 17 -65 17 -126 -5 -34 -13 -73 -26
-87 -28 -48 -9 52 36 160 71 125 42 191 42 280 -2z m-910 -149 c0 -9 10 -14
28 -14 25 -1 26 -1 8 -15 -12 -9 -17 -22 -14 -39 4 -22 3 -23 -18 -14 -18 8
-28 8 -40 -3 -16 -13 -17 -12 -11 11 4 16 1 30 -10 42 -15 17 -15 18 6 18 14
0 25 7 28 20 6 22 23 18 23 -6z m621 -14 c21 0 21 -1 6 -18 -10 -11 -14 -26
-10 -41 5 -21 4 -22 -16 -10 -17 11 -25 12 -42 1 -19 -12 -20 -11 -14 8 4 14
1 28 -11 41 -16 18 -16 19 4 19 12 0 27 10 33 22 l12 22 8 -22 c5 -13 17 -22
30 -22z m-398 -50 c20 0 20 -1 2 -13 -12 -10 -16 -22 -13 -40 5 -24 4 -25 -18
-11 -15 10 -24 12 -29 5 -11 -19 -27 -12 -20 10 5 14 1 25 -12 34 -17 14 -17
14 4 15 13 0 24 8 29 22 l7 23 15 -23 c8 -12 24 -22 35 -22z m180 20 c3 -13
14 -20 29 -20 22 -1 22 -1 5 -15 -13 -9 -17 -20 -12 -35 6 -18 4 -20 -19 -14
-16 4 -32 1 -42 -7 -13 -11 -14 -9 -8 16 5 21 3 31 -11 42 -18 12 -18 13 4 13
14 0 25 7 28 20 3 11 9 20 13 20 4 0 10 -9 13 -20z"/>
<path d="M1630 1620 c-92 -36 -133 -38 -154 -9 -13 20 -21 21 -72 16 -31 -3
-61 -10 -66 -15 -11 -11 -13 -696 -2 -713 7 -12 103 -7 124 6 6 4 10 65 10
159 0 171 -1 169 72 191 l43 12 3 74 c2 41 7 78 12 83 5 5 49 16 97 25 l88 16
3 72 c2 62 0 75 -18 93 -26 26 -50 25 -140 -10z m-62 -289 l-3 -46 -40 0 c-39
0 -40 1 -43 40 -4 47 13 64 58 57 30 -4 31 -6 28 -51z"/>
</g>
</svg>
