<?xml version="1.0" standalone="no"?>
<!DOCTYPE svg PUBLIC "-//W3C//DTD SVG 20010904//EN"
 "http://www.w3.org/TR/2001/REC-SVG-20010904/DTD/svg10.dtd">
<svg version="1.0" xmlns="http://www.w3.org/2000/svg"
 width="512.000000pt" height="512.000000pt" viewBox="0 0 512.000000 512.000000"
 preserveAspectRatio="xMidYMid meet">

<g transform="translate(0.000000,512.000000) scale(0.100000,-0.100000)"
fill="#000000" stroke="none">
<path d="M0 2560 l0 -2560 2560 0 2560 0 0 2560 0 2560 -2560 0 -2560 0 0
-2560z m2890 1253 c1029 -1804 1405 -2463 1430 -2508 l28 -50 -242 -248 -241
-247 -200 137 c-110 76 -355 244 -544 373 l-344 235 327 3 c179 1 326 5 326 9
0 10 -864 1523 -870 1523 -6 0 -870 -1514 -870 -1524 0 -3 147 -7 326 -8 l327
-3 -533 -365 c-294 -201 -541 -366 -549 -368 -18 -3 -488 475 -483 492 2 6
394 694 871 1531 477 836 875 1535 885 1553 9 17 20 32 24 32 4 0 154 -255
332 -567z"/>
</g>
</svg>
