<?xml version="1.0" standalone="no"?>
<!DOCTYPE svg PUBLIC "-//W3C//DTD SVG 20010904//EN"
 "http://www.w3.org/TR/2001/REC-SVG-20010904/DTD/svg10.dtd">
<svg version="1.0" xmlns="http://www.w3.org/2000/svg"
 width="85.000000pt" height="85.000000pt" viewBox="0 0 85.000000 85.000000"
 preserveAspectRatio="xMidYMid meet">

<g transform="translate(0.000000,85.000000) scale(0.100000,-0.100000)"
fill="#000000" stroke="none">
<path d="M0 425 l0 -425 425 0 425 0 0 425 0 425 -425 0 -425 0 0 -425z m410
310 c9 -11 9 -22 1 -48 -7 -19 -9 -41 -5 -50 3 -10 3 -17 0 -17 -4 0 -11 12
-16 26 -9 22 -13 24 -25 14 -10 -8 -15 -9 -15 -2 0 6 8 15 18 21 15 9 15 11
-8 20 -22 8 -22 10 -4 10 11 1 25 -4 32 -11 9 -9 12 -7 12 10 0 11 -8 26 -17
31 -16 9 -16 10 -2 11 9 0 22 -7 29 -15z m58 4 c-10 -5 -18 -20 -18 -31 0 -17
3 -19 12 -10 7 7 21 12 33 11 17 0 17 -2 -5 -10 -23 -9 -23 -11 -7 -20 9 -6
17 -15 17 -21 0 -7 -5 -7 -14 1 -11 10 -17 6 -29 -19 -15 -29 -15 -30 6 -31
12 0 16 -3 9 -6 -7 -3 -19 -2 -27 1 -12 4 -13 10 -3 31 8 19 8 31 -1 51 -15
35 -5 64 22 64 20 -1 20 -2 5 -11z m-135 -99 c27 0 46 -4 42 -9 -3 -5 -19 -8
-35 -6 -18 3 -28 0 -25 -6 13 -20 -24 -19 -56 1 -31 20 -28 21 19 3 15 -6 15
-4 -3 18 -11 13 -13 18 -5 12 8 -7 36 -13 63 -13z m250 3 c-7 -3 -13 -9 -13
-14 0 -6 9 -5 21 1 11 7 23 9 26 6 3 -3 -6 -11 -21 -17 -14 -7 -26 -16 -26
-21 0 -5 14 -1 31 8 17 8 28 11 24 5 -3 -6 -21 -18 -38 -27 -18 -9 -42 -25
-53 -36 -17 -15 -24 -17 -30 -7 -4 7 -2 15 4 17 17 5 33 38 27 54 -4 10 -16
13 -35 10 -18 -3 -30 0 -30 7 0 6 17 11 38 12 20 0 46 4 57 8 11 5 22 6 25 3
3 -2 -1 -7 -7 -9z m-262 -65 c1 -7 1 -16 0 -20 0 -5 3 -8 9 -8 6 0 10 -5 10
-11 0 -6 -13 0 -29 13 -15 13 -26 26 -24 31 7 12 33 8 34 -5z m143 -3 c-4 -8
-11 -12 -16 -9 -6 4 -5 10 3 15 19 12 19 11 13 -6z m156 -5 c-12 -8 -12 -10 4
-10 11 0 17 -2 14 -5 -3 -4 -18 -3 -33 1 l-28 7 24 13 c26 14 42 9 19 -6z
m-353 -6 c-3 -3 -12 -4 -19 -1 -8 3 -5 6 6 6 11 1 17 -2 13 -5z m110 -20 c-3
-3 -12 -4 -19 -1 -8 3 -5 6 6 6 11 1 17 -2 13 -5z m88 -4 c-3 -5 -11 -10 -16
-10 -6 0 -7 5 -4 10 3 6 11 10 16 10 6 0 7 -4 4 -10z m124 -22 c-2 -31 -2 -31
-6 -5 -5 29 -20 35 -43 15 -12 -11 -12 -10 -1 5 7 9 22 17 32 17 15 0 19 -7
18 -32z m41 -9 c0 -11 -4 -17 -10 -14 -5 3 -10 15 -10 26 0 11 5 17 10 14 6
-3 10 -15 10 -26z m-230 6 c-7 -8 -17 -15 -23 -15 -6 0 -2 7 9 15 25 19 30 19
14 0z m257 -27 c-3 -7 -5 -2 -5 12 0 14 2 19 5 13 2 -7 2 -19 0 -25z m-70 -30
c-3 -8 -6 -5 -6 6 -1 11 2 17 5 13 3 -3 4 -12 1 -19z m30 0 c-3 -8 -6 -5 -6 6
-1 11 2 17 5 13 3 -3 4 -12 1 -19z m-30 -110 c-3 -8 -6 -5 -6 6 -1 11 2 17 5
13 3 -3 4 -12 1 -19z m118 -18 c-3 -5 -14 -10 -23 -10 -15 0 -15 2 -2 10 20
13 33 13 25 0z m-130 -50 c-10 -11 -22 -20 -28 -20 -5 0 1 11 14 24 28 29 40
25 14 -4z m89 9 c-3 -5 -10 -7 -15 -3 -5 3 -7 10 -3 15 3 5 10 7 15 3 5 -3 7
-10 3 -15z m12 -24 c-36 -19 -47 -19 -22 0 11 8 27 15 35 15 9 0 3 -7 -13 -15z
m-101 -25 c-3 -5 -12 -10 -18 -10 -7 0 -6 4 3 10 19 12 23 12 15 0z m12 -66
c-3 -3 -12 -4 -19 -1 -8 3 -5 6 6 6 11 1 17 -2 13 -5z"/>
</g>
</svg>
