<?xml version="1.0" standalone="no"?>
<!DOCTYPE svg PUBLIC "-//W3C//DTD SVG 20010904//EN"
 "http://www.w3.org/TR/2001/REC-SVG-20010904/DTD/svg10.dtd">
<svg version="1.0" xmlns="http://www.w3.org/2000/svg"
 width="400.000000pt" height="400.000000pt" viewBox="0 0 400.000000 400.000000"
 preserveAspectRatio="xMidYMid meet">

<g transform="translate(0.000000,400.000000) scale(0.100000,-0.100000)"
fill="#000000" stroke="none">
<path d="M1615 3823 l-30 -17 55 -8 c130 -20 226 -139 204 -254 l-6 -33 -53
44 c-121 98 -255 95 -255 -6 0 -46 13 -57 28 -24 28 62 129 26 161 -58 10 -26
9 -27 -24 -27 -70 0 -105 -35 -105 -106 0 -38 24 -104 38 -104 4 0 9 17 9 37
1 39 38 83 69 83 25 0 62 -46 70 -86 16 -85 77 -184 113 -184 10 0 32 5 49 11
l31 11 -45 42 c-42 40 -44 46 -44 97 0 31 18 119 40 204 22 83 40 164 40 180
0 38 -40 123 -71 152 -65 59 -206 83 -274 46z"/>
<path d="M2182 3825 c-56 -24 -91 -54 -118 -101 -34 -58 -34 -125 1 -249 14
-49 32 -124 41 -167 16 -73 16 -78 -2 -114 -50 -101 -260 -182 -374 -144 -22
7 -40 15 -40 17 0 2 16 27 35 56 19 28 35 57 35 63 0 7 -50 13 -152 17 -199 7
-297 26 -406 77 -83 39 -89 41 -130 29 -23 -6 -45 -15 -48 -20 -2 -5 30 -26
73 -48 l79 -39 -4 -41 c-2 -23 -6 -41 -8 -41 -2 0 -54 25 -114 55 -60 30 -116
55 -123 55 -7 0 -26 -13 -41 -29 l-28 -30 159 -80 c159 -79 160 -80 171 -120
5 -23 8 -41 7 -41 -2 0 -82 38 -177 85 -95 46 -174 80 -176 75 -7 -20 32 -72
81 -108 28 -22 124 -81 212 -133 133 -78 174 -109 248 -182 48 -48 85 -92 82
-97 -5 -8 -116 -88 -170 -122 -6 -4 -47 17 -91 46 -75 50 -79 54 -76 87 5 72
91 93 170 42 46 -30 62 -64 42 -88 -17 -20 -66 -19 -74 1 -12 31 -6 37 29 31
36 -6 43 1 23 21 -31 31 -108 -2 -108 -47 0 -24 54 -71 82 -71 11 0 49 21 84
46 l64 45 -35 44 c-79 96 -341 257 -504 310 l-55 18 -28 -32 c-15 -17 -28 -37
-28 -44 0 -7 24 -21 54 -30 65 -21 83 -38 60 -57 -13 -11 -26 -10 -80 7 l-64
21 -16 -29 c-15 -29 -15 -30 20 -44 20 -8 40 -15 46 -15 16 0 12 -15 -9 -34
-14 -12 -28 -15 -58 -10 -36 5 -41 4 -46 -17 -8 -30 -1 -39 30 -39 19 0 24 -4
19 -16 -3 -9 -6 -18 -6 -20 0 -2 -16 -4 -35 -4 -43 0 -41 29 -18 -324 l17
-269 83 -60 83 -61 0 -102 0 -102 -70 -52 c-38 -29 -70 -55 -70 -59 0 -5 31
-30 70 -57 69 -49 69 -50 95 -130 30 -98 30 -91 5 -150 l-21 -47 -45 44 c-36
36 -44 50 -42 74 3 26 8 31 41 36 66 10 68 8 -73 89 -41 24 -136 83 -210 132
l-135 89 -27 -33 c-31 -38 -53 -76 -47 -81 22 -18 253 -178 268 -186 20 -11
46 -72 39 -92 -2 -6 -18 12 -35 40 l-32 51 -54 0 c-51 0 -55 2 -67 30 -20 49
-29 51 -113 28 -82 -23 -92 -38 -24 -38 64 0 82 -8 102 -46 17 -32 21 -34 74
-35 50 0 59 -3 80 -30 13 -17 21 -32 19 -35 -3 -2 -48 11 -102 30 l-96 35 -15
-36 c-21 -49 -19 -58 13 -61 75 -6 213 -71 290 -137 23 -20 70 -76 103 -123
34 -48 69 -94 79 -103 45 -44 171 -102 279 -129 30 -8 40 -15 33 -22 -12 -12
-94 3 -180 33 -83 28 -82 29 -82 -51 l0 -69 43 -12 c23 -6 45 -13 50 -16 4 -2
7 7 7 20 0 16 -7 26 -20 30 -11 3 -20 12 -20 21 0 19 3 19 53 5 35 -9 37 -12
37 -49 0 -37 2 -40 29 -40 30 0 41 14 41 52 0 18 5 20 43 15 23 -4 68 -9 100
-13 39 -4 57 -11 57 -20 0 -8 -10 -14 -25 -14 -18 0 -25 -5 -25 -19 0 -16 10
-19 63 -24 34 -2 65 -2 68 2 4 3 10 32 14 64 l6 57 -49 0 c-65 0 -86 8 -72 26
9 10 0 28 -37 78 -47 63 -50 66 -137 95 -49 17 -91 30 -92 28 -1 -1 0 -23 3
-49 6 -47 6 -47 58 -63 60 -17 85 -19 85 -6 0 14 -23 28 -68 42 -23 6 -42 16
-42 21 0 10 5 10 64 -5 44 -11 51 -17 62 -50 10 -28 10 -37 1 -37 -17 0 -153
36 -164 43 -6 4 -13 32 -16 63 -4 44 -11 60 -29 72 -64 44 -131 120 -163 185
-19 38 -32 73 -29 78 3 5 16 9 29 9 21 0 24 -4 19 -28 -6 -27 -5 -28 82 -46
77 -16 94 -24 136 -60 101 -88 270 -161 528 -227 85 -22 184 -54 220 -71 l65
-31 -35 -7 c-42 -8 -77 -25 -107 -53 l-23 -20 0 50 0 50 -37 7 c-21 3 -44 6
-50 6 -24 0 -13 -32 22 -71 19 -22 35 -44 35 -51 0 -15 -76 58 -98 94 -20 34
-22 34 -108 43 l-69 6 40 -35 c22 -20 65 -49 95 -66 51 -28 118 -76 95 -68
-47 15 -188 101 -222 135 -33 33 -57 46 -104 58 -34 9 -64 13 -68 10 -15 -16
111 -113 219 -170 142 -75 217 -122 277 -177 42 -39 46 -41 40 -18 -18 73 -19
137 -3 168 36 70 112 82 118 19 2 -24 8 -33 25 -35 22 -3 23 -1 22 82 -1 76
-3 88 -22 101 -20 14 -22 14 -25 0 -2 -9 5 -26 15 -38 l18 -22 -22 19 c-12 10
-23 30 -25 44 -3 24 -13 29 -128 65 -404 125 -438 137 -517 189 -132 86 -179
131 -217 211 -69 146 -71 165 -71 802 0 415 4 586 13 629 6 33 10 61 8 64 -13
12 -176 -127 -176 -150 0 -6 7 -16 16 -22 23 -18 33 -77 39 -246 l6 -155 -66
-54 c-36 -29 -68 -51 -71 -48 -8 7 14 306 31 419 17 116 29 143 91 196 96 85
201 113 294 77 l35 -13 -48 -1 c-40 -1 -54 -6 -78 -31 l-30 -29 3 -603 c4
-581 4 -606 25 -680 45 -158 110 -243 240 -310 37 -20 149 -68 247 -108 257
-103 346 -146 389 -188 l37 -36 0 -93 0 -93 -26 0 -25 0 26 -34 c14 -18 23
-40 20 -47 -3 -8 -34 -32 -70 -54 -35 -22 -64 -45 -65 -51 0 -17 66 -100 86
-108 25 -9 28 0 10 26 -20 28 -20 52 -2 67 12 10 18 -4 36 -86 33 -146 37
-160 43 -143 3 8 15 58 27 110 31 140 29 135 48 116 15 -14 14 -19 -1 -52 -10
-20 -15 -39 -13 -42 8 -7 106 92 106 106 0 7 -19 24 -42 39 -93 59 -103 76
-67 121 l21 27 -26 3 c-26 3 -26 4 -26 86 0 70 4 88 23 116 39 58 203 144 422
221 239 84 367 174 421 295 59 133 57 119 61 764 2 327 1 610 -2 627 -8 45
-51 67 -119 61 l-51 -5 35 15 c19 8 63 17 98 20 55 4 70 1 126 -27 37 -18 83
-52 113 -83 42 -45 51 -62 61 -113 25 -127 52 -485 38 -485 -4 0 -35 24 -68
53 l-60 52 6 155 c7 170 17 229 40 246 23 16 21 19 -31 75 -44 47 -119 97
-129 86 -3 -2 1 -24 7 -48 8 -30 13 -219 16 -590 4 -461 2 -559 -11 -635 -34
-198 -74 -271 -199 -365 -123 -92 -157 -108 -452 -201 -236 -76 -260 -85 -266
-108 -4 -16 -7 -19 -8 -7 -1 9 -5 17 -9 17 -20 0 -57 -62 -45 -74 4 -3 5 -33
4 -66 -2 -55 -1 -60 18 -60 17 0 21 6 21 30 0 19 7 33 19 40 32 16 51 12 83
-21 l31 -30 -5 -94 -5 -93 24 24 c50 50 132 104 263 175 107 58 212 126 299
196 16 12 -17 8 -93 -12 -76 -20 -94 -29 -132 -68 -24 -24 -85 -65 -136 -92
-109 -57 -109 -45 0 20 89 53 139 92 130 100 -3 3 -36 3 -72 -1 -64 -7 -68 -9
-95 -48 -33 -48 -79 -92 -86 -84 -3 3 10 24 30 48 54 65 44 81 -44 64 -30 -6
-31 -9 -31 -56 l0 -50 -35 31 c-39 33 -74 46 -106 38 -16 -4 -18 -3 -9 7 20
25 128 66 276 105 190 50 260 74 359 123 94 47 127 69 176 115 30 28 51 38
120 52 52 11 83 22 82 29 -2 7 -4 18 -5 24 -2 7 8 14 21 16 22 4 23 2 16 -35
-16 -88 -70 -170 -150 -226 -29 -20 -29 -20 -12 -1 20 25 14 34 -25 34 -26 0
-28 -3 -28 -39 0 -34 -4 -40 -32 -52 l-33 -14 59 -5 60 -5 -41 -28 c-39 -27
-142 -71 -149 -64 -2 2 9 19 25 38 16 19 32 31 36 27 5 -4 2 -15 -6 -24 -15
-19 -13 -18 44 11 20 10 37 22 37 27 0 4 -28 8 -63 8 -58 0 -66 -3 -93 -31
-16 -17 -53 -46 -82 -66 -51 -33 -53 -36 -37 -54 19 -21 19 -21 -80 -37 l-50
-8 92 -47 c51 -26 96 -47 100 -47 4 0 -6 13 -21 29 -33 34 -31 36 77 47 l67 6
0 -42 c0 -43 0 -43 20 -25 12 10 30 34 41 52 37 59 66 35 33 -28 -21 -42 -12
-46 32 -13 56 43 104 178 57 159 -104 -40 -168 -55 -209 -49 -43 6 -62 24 -26
24 35 0 175 41 226 67 68 34 87 52 166 163 78 109 112 143 191 193 61 39 163
77 204 77 30 0 32 11 5 35 -25 23 -143 32 -194 15 -20 -6 -51 -24 -68 -38
l-31 -27 7 30 c11 43 50 106 93 146 89 85 229 161 269 145 30 -12 12 25 -25
49 -47 32 -132 43 -186 25 -22 -7 -70 -43 -115 -85 -43 -39 -112 -94 -154
-120 -42 -27 -76 -52 -76 -57 0 -4 20 -8 45 -8 25 0 45 -3 45 -7 0 -5 -22 -32
-48 -62 l-48 -54 -20 49 -20 49 29 93 c30 93 30 93 93 138 35 25 64 50 64 55
0 5 -29 30 -65 56 l-64 48 -1 108 0 107 79 58 79 57 6 80 c3 44 11 166 16 270
6 105 12 201 13 215 2 21 -3 26 -33 30 -44 6 -57 40 -15 40 23 0 26 4 23 28
-3 25 -6 27 -50 27 -31 0 -53 6 -64 17 -17 17 -16 18 19 33 20 8 41 15 47 15
15 0 12 22 -5 47 l-15 21 -64 -21 c-54 -17 -67 -18 -80 -7 -22 18 -8 32 56 54
29 10 56 22 60 25 10 9 -33 69 -53 76 -38 13 -250 -86 -400 -186 -93 -63 -189
-151 -189 -174 0 -14 119 -95 140 -95 23 0 78 40 83 61 7 27 -33 69 -67 69
-21 0 -56 -22 -56 -35 0 -2 16 -1 35 2 31 5 35 3 35 -16 0 -25 -20 -36 -54
-27 -55 14 -35 75 36 112 29 15 105 19 125 6 30 -19 33 -70 33 -597 0 -577 -4
-634 -54 -738 -39 -83 -32 -80 -127 -53 -46 13 -99 27 -116 31 -20 4 -33 13
-33 22 0 13 9 14 50 9 27 -4 68 -13 91 -21 62 -22 72 -20 64 12 -4 16 -8 29
-10 31 -1 2 -44 12 -95 22 -136 28 -141 44 -13 36 l103 -7 -12 26 c-12 27 -27
33 -93 38 l-40 3 35 16 c56 26 101 64 132 110 34 53 35 74 4 82 -13 3 -31 9
-40 12 -11 4 -19 -3 -27 -22 -37 -99 -80 -141 -175 -171 -30 -9 -54 -20 -54
-24 0 -3 7 -26 16 -50 8 -25 14 -69 13 -103 l-3 -59 62 -17 c81 -22 152 -50
152 -59 0 -10 -175 -101 -270 -140 -41 -17 -128 -60 -193 -96 -65 -36 -120
-65 -122 -65 -3 0 18 30 45 67 28 36 48 68 46 70 -2 3 -21 9 -41 13 -39 9 -65
4 -65 -12 0 -5 -12 -35 -26 -66 -14 -31 -31 -68 -38 -82 -8 -19 -12 154 -14
725 l-2 750 47 132 c27 73 50 133 53 133 3 0 21 -21 40 -46 19 -25 42 -55 51
-66 l16 -21 32 22 c17 12 31 26 31 30 0 4 -23 33 -51 64 -34 38 -46 59 -37 62
7 2 42 14 78 24 l64 20 86 -54 85 -54 70 68 c39 37 88 81 110 97 40 30 173
114 180 114 8 0 172 104 207 131 37 30 85 96 75 105 -3 3 -82 -34 -177 -81
-95 -47 -175 -84 -178 -81 -3 3 0 23 7 43 12 36 20 42 166 113 85 41 154 78
155 81 0 10 -56 59 -68 59 -6 0 -60 -24 -119 -54 -59 -30 -111 -52 -115 -49
-5 2 -8 20 -8 38 0 33 4 37 75 76 41 22 73 44 70 49 -2 4 -24 13 -47 19 -41
12 -47 10 -132 -29 -110 -52 -197 -69 -398 -77 -87 -3 -158 -10 -158 -15 0 -5
17 -35 39 -67 l38 -59 -37 -12 c-26 -9 -57 -10 -97 -5 -65 9 -82 8 -101 -8
-22 -17 6 -26 109 -33 81 -6 96 -4 108 10 7 9 39 24 70 33 l56 18 -49 5 -49 5
47 23 c55 26 57 26 50 7 -7 -18 9 -19 38 -4 18 10 20 9 15 -5 -5 -13 4 -11 44
9 29 15 58 23 69 20 17 -6 16 -9 -15 -36 -24 -22 -40 -29 -55 -24 -15 5 -20 2
-20 -10 0 -13 -6 -16 -24 -11 -14 3 -28 1 -31 -5 -4 -6 -17 -8 -30 -5 -15 4
-25 1 -29 -10 -4 -12 -10 -13 -26 -4 -24 13 -26 3 -4 -28 19 -27 23 -27 157
-1 59 12 110 19 112 17 12 -11 -28 -108 -58 -143 -36 -42 -145 -103 -200 -111
-22 -4 -59 5 -115 26 l-83 32 55 50 c55 48 55 50 40 74 -9 13 -21 24 -27 24
-6 0 -34 -23 -62 -50 l-51 -50 -38 90 c-21 50 -37 92 -35 94 2 2 26 16 52 31
60 34 92 80 118 170 30 100 49 118 103 94 25 -12 42 -44 48 -89 4 -25 4 -25
21 7 17 32 23 106 11 138 -9 22 -57 45 -94 45 -35 0 -38 12 -10 58 39 63 128
77 145 23 9 -29 22 -26 28 8 9 42 -2 70 -34 86 -57 30 -125 13 -214 -55 l-65
-49 0 59 c0 32 5 71 11 87 25 66 135 143 207 143 41 0 41 13 -1 28 -45 16
-144 14 -185 -3z m-694 -722 c36 -21 44 -24 39 -10 -7 18 8 24 18 7 10 -17 38
-12 31 6 -7 18 18 13 74 -17 l35 -18 -55 -1 -55 -1 53 -18 c29 -10 61 -26 72
-36 17 -15 34 -17 129 -13 l109 4 -20 -50 c-11 -28 -23 -59 -25 -68 -8 -27
-19 -22 -72 27 -26 25 -52 45 -56 45 -13 0 -45 -32 -45 -44 0 -6 22 -29 50
-51 27 -22 48 -44 47 -49 -4 -11 -136 -65 -163 -65 -67 -2 -201 79 -239 143
-30 53 -48 116 -32 116 6 0 62 -10 124 -22 109 -21 113 -21 133 -3 25 23 26
39 1 32 -12 -3 -22 1 -25 9 -4 10 -14 12 -31 8 -16 -4 -25 -2 -25 6 0 8 -10 9
-30 5 -24 -5 -30 -3 -30 10 0 12 -5 15 -21 10 -15 -5 -29 1 -50 21 -51 49 -15
60 59 17z m553 -188 c18 -55 37 -105 41 -111 4 -6 45 -23 90 -39 46 -15 86
-31 91 -35 4 -3 -38 -17 -93 -30 -100 -24 -100 -24 -110 -59 -48 -187 -65
-244 -68 -231 -2 8 -18 71 -36 140 l-33 125 -99 26 -99 26 35 15 c19 8 60 23
90 33 30 10 58 23 62 29 4 6 24 59 45 118 20 60 40 105 44 100 3 -4 21 -52 40
-107z m-151 -293 c0 -10 -29 -46 -65 -82 l-65 -64 -25 24 c-14 13 -24 27 -23
31 2 4 32 30 68 58 67 52 110 65 110 33z m-386 -161 c5 -36 8 -39 48 -46 l43
-8 -38 -9 c-41 -11 -42 -12 -52 -72 -8 -46 -25 -32 -25 20 0 33 -17 44 -67 44
-38 0 -26 16 20 26 39 8 42 11 45 47 4 48 18 48 26 -2z m300 -201 c5 -35 9
-40 34 -40 47 0 59 -17 17 -24 -38 -8 -40 -9 -50 -71 -6 -33 -9 -37 -15 -20
-5 11 -9 32 -9 47 -1 23 -6 28 -38 34 -59 10 -62 17 -13 29 42 10 45 13 48 48
4 49 18 47 26 -3z m-284 -30 c0 -11 -7 -20 -15 -20 -8 0 -15 9 -15 20 0 11 7
20 15 20 8 0 15 -9 15 -20z m-235 -118 c45 -5 51 -19 12 -26 -37 -7 -47 -21
-47 -66 0 -47 -17 -43 -24 5 -5 29 -13 46 -24 49 -9 2 -30 7 -47 11 l-30 8 45
11 c42 11 45 14 54 56 l9 45 11 -45 c10 -39 16 -45 41 -48z m235 23 c0 -16 -6
-25 -15 -25 -9 0 -15 9 -15 25 0 16 6 25 15 25 9 0 15 -9 15 -25z m4 -81 c8
-20 -1 -34 -20 -34 -8 0 -14 10 -14 25 0 28 24 34 34 9z m-654 -64 c0 -38 -4
-70 -8 -70 -12 0 -92 61 -92 70 0 11 72 69 88 70 8 0 12 -20 12 -70z m2316 34
l44 -35 -45 -35 c-25 -19 -47 -34 -50 -34 -3 0 -5 32 -5 70 0 39 3 70 6 70 4
0 27 -16 50 -36z m-1376 -4 c0 -10 -4 -22 -10 -25 -6 -4 -10 7 -10 25 0 18 4
29 10 25 6 -3 10 -15 10 -25z m-285 -80 c0 -13 -6 -25 -12 -27 -9 -3 -13 6
-13 27 0 21 4 30 12 28 7 -3 13 -15 13 -28z m448 -174 c4 -104 3 -185 -2 -180
-10 12 -101 241 -101 256 0 11 90 122 95 116 1 -2 5 -88 8 -192z m-153 149 c0
-16 -6 -25 -15 -25 -9 0 -15 9 -15 25 0 16 6 25 15 25 9 0 15 -9 15 -25z
m-560 -25 c0 -16 -4 -30 -10 -30 -5 0 -10 14 -10 30 0 17 5 30 10 30 6 0 10
-13 10 -30z m270 -55 c0 -16 -6 -25 -15 -25 -9 0 -15 9 -15 25 0 16 6 25 15
25 9 0 15 -9 15 -25z m-260 -40 c0 -16 -6 -25 -15 -25 -9 0 -15 9 -15 25 0 16
6 25 15 25 9 0 15 -9 15 -25z m629 -109 c28 -66 49 -122 46 -124 -2 -2 -19 10
-37 27 -18 17 -56 50 -85 73 -29 24 -52 48 -53 54 0 11 70 97 75 92 2 -2 26
-57 54 -122z m-369 39 c0 -14 -4 -25 -10 -25 -5 0 -10 11 -10 25 0 14 5 25 10
25 6 0 10 -11 10 -25z m-260 -30 c0 -16 -6 -25 -15 -25 -9 0 -15 9 -15 25 0
16 6 25 15 25 9 0 15 -9 15 -25z m530 -46 c25 -22 64 -57 88 -76 23 -20 41
-38 39 -40 -5 -5 -245 42 -253 50 -6 5 66 107 76 107 3 0 25 -19 50 -41z
m-262 -42 c2 -19 -1 -27 -12 -27 -11 0 -16 10 -16 31 0 38 24 35 28 -4z m-268
-6 c0 -23 -16 -36 -25 -21 -9 14 1 40 15 40 5 0 10 -9 10 -19z m-402 -78 l-3
-27 -29 25 -29 25 29 23 c29 23 29 23 32 2 2 -11 2 -33 0 -48z m2297 42 c19
-15 19 -16 -8 -42 l-27 -28 0 43 c0 46 5 49 35 27z m-1325 -47 l65 -12 -70 -8
c-38 -4 -110 -15 -158 -24 -49 -8 -91 -14 -93 -11 -2 2 11 24 30 49 l35 45 63
-13 c35 -7 92 -18 128 -26z m-570 -13 c0 -26 -14 -33 -25 -15 -9 14 1 40 15
40 5 0 10 -11 10 -25z m264 -1 c7 -18 0 -34 -15 -34 -5 0 -9 11 -9 25 0 28 15
34 24 9z m446 -42 c0 -5 -13 -7 -30 -4 -16 2 -30 6 -30 8 0 2 14 4 30 4 17 0
30 -4 30 -8z m-90 -14 c0 -6 9 -22 21 -34 l21 -23 24 27 23 27 1 -32 c0 -25
-5 -33 -17 -34 -10 0 -25 -2 -33 -3 -8 -2 -51 -6 -95 -10 -136 -12 -321 -54
-467 -107 l-139 -51 -25 23 c-13 12 -24 28 -24 34 0 14 73 48 197 94 114 42
189 61 323 81 140 22 190 24 190 8z m-622 -28 c-3 -22 -23 -28 -24 -7 -1 17 6
27 17 27 6 0 9 -9 7 -20z m712 -145 c0 -63 3 -61 -121 -68 l-76 -4 15 39 c8
21 18 38 21 38 3 0 17 -9 31 -20 20 -16 22 -20 8 -20 -10 0 -18 5 -18 11 0 8
-5 8 -15 -1 -8 -7 -15 -16 -15 -21 0 -11 57 -11 83 0 16 6 13 12 -26 48 -26
24 -40 44 -34 47 7 2 42 5 80 5 l67 1 0 -55z m-206 -18 l-34 -64 -72 -16 c-40
-9 -74 -14 -75 -13 -6 5 27 76 35 76 5 0 17 -7 28 -16 18 -15 18 -15 -8 -9
-24 4 -28 2 -28 -15 0 -12 3 -19 8 -17 4 3 26 10 50 16 23 7 40 16 37 21 -3 5
-28 21 -55 36 -28 15 -48 29 -46 31 6 7 131 31 162 32 l32 1 -34 -63z m-180 1
c-3 -13 -16 -43 -28 -67 -19 -41 -26 -47 -89 -68 -62 -20 -68 -21 -62 -5 3 9
9 29 12 45 7 37 17 41 39 15 19 -20 19 -21 -3 -14 -19 6 -23 4 -23 -13 0 -12
3 -21 6 -21 17 0 84 24 84 30 0 4 -23 22 -50 41 l-50 34 67 22 c90 29 106 29
97 1z m-174 -32 c0 -3 -20 -63 -35 -104 -4 -10 -17 -7 -55 14 -27 15 -50 30
-50 34 0 4 26 19 58 33 53 24 82 32 82 23z m-447 -71 c22 -45 22 -44 -13 -36
-33 6 -34 8 -24 46 8 34 17 31 37 -10z m1007 -9 c0 -25 -4 -47 -9 -50 -4 -3
-35 -8 -67 -11 -57 -4 -58 -4 -16 6 23 6 42 13 42 17 0 4 -19 21 -41 37 l-41
30 29 6 c15 4 45 7 66 8 l37 1 0 -44z m1085 -16 c-3 -6 -17 -10 -30 -10 l-25
0 17 35 17 36 13 -26 c8 -14 11 -30 8 -35z m-1265 -10 c-37 -55 -45 -61 -103
-79 -34 -10 -63 -15 -65 -11 -2 5 5 27 15 49 l18 40 25 -20 c23 -18 23 -20 4
-14 -15 4 -24 0 -28 -11 -4 -9 -4 -19 -1 -22 7 -7 85 17 85 26 0 4 -18 18 -40
32 -22 14 -40 28 -40 32 0 6 113 33 158 37 7 0 -5 -26 -28 -59z m-160 8 c-1
-16 -49 -106 -50 -93 -1 17 -102 62 -107 48 -5 -14 -33 -18 -33 -4 0 7 149 58
178 60 6 1 12 -5 12 -11z m240 -3 c10 -12 10 -15 -3 -15 -8 0 -17 5 -19 12 -3
7 -11 -2 -19 -20 -7 -18 -17 -32 -21 -32 -11 0 -10 7 7 40 17 33 36 38 55 15z
m99 -177 c0 -93 -2 -109 -12 -88 -6 14 -26 58 -44 98 -26 59 -36 72 -50 68
-10 -3 -30 -8 -45 -12 -16 -3 -28 -8 -28 -11 0 -2 22 -31 50 -64 27 -33 55
-69 61 -80 12 -23 14 -24 -52 17 -20 12 -72 41 -117 64 -45 22 -84 45 -87 49
-10 18 192 67 283 70 l42 1 -1 -112z m121 -232 c0 -2 -8 -10 -17 -17 -16 -13
-17 -12 -4 4 13 16 21 21 21 13z"/>
<path d="M1788 1443 c-21 -2 -38 -8 -38 -12 0 -9 49 -56 53 -50 12 17 37 59
37 64 0 3 -3 4 -7 3 -5 -1 -25 -3 -45 -5z"/>
<path d="M1628 1413 c-10 -2 -18 -8 -18 -13 0 -8 50 -44 55 -38 6 7 25 47 25
52 0 7 -36 6 -62 -1z"/>
<path d="M1500 1388 l-35 -10 29 -23 c34 -27 40 -26 54 15 12 34 9 35 -48 18z"/>
<path d="M1370 1344 l-34 -15 33 -20 c38 -23 38 -23 51 20 10 36 3 38 -50 15z"/>
<path d="M1245 1293 l-30 -16 33 -15 c36 -18 37 -17 46 21 8 32 -4 34 -49 10z"/>
<path d="M2084 2399 c3 -17 6 -37 6 -44 0 -11 66 -34 188 -65 25 -6 42 -17 42
-25 0 -8 -6 -15 -13 -15 -16 0 -153 35 -179 45 -14 6 -18 2 -18 -18 0 -36 16
-44 118 -64 122 -24 120 -40 -3 -35 -52 3 -95 0 -95 -4 1 -26 30 -43 84 -49
l58 -8 -47 -22 c-57 -28 -110 -77 -136 -127 -10 -21 -19 -39 -19 -42 0 -5 59
-26 75 -26 7 0 20 20 29 44 23 60 89 119 163 146 l61 22 -14 45 c-8 26 -14 74
-14 108 l0 62 -65 18 c-36 9 -97 33 -136 51 -39 19 -75 34 -81 34 -6 0 -8 -12
-4 -31z"/>
<path d="M2685 2395 c-38 -19 -98 -41 -132 -51 l-63 -17 0 -57 c0 -31 -7 -79
-15 -105 -15 -52 -13 -65 12 -65 23 0 115 -48 145 -77 15 -14 36 -48 48 -75
21 -48 23 -50 53 -44 46 9 53 21 35 59 -26 55 -68 97 -126 126 l-56 28 60 8
c59 7 74 16 74 47 0 10 -6 15 -17 13 -10 -2 -51 -6 -90 -9 -56 -4 -73 -2 -73
8 0 8 17 16 43 20 136 21 178 42 163 81 -4 11 -16 10 -63 -4 -91 -28 -143 -34
-143 -17 0 9 17 19 43 26 23 6 75 20 115 32 l72 21 0 43 c0 24 -3 44 -7 43 -5
0 -39 -16 -78 -34z"/>
<path d="M2377 2032 l-47 -48 50 -49 50 -49 45 44 c25 24 45 49 45 54 0 11
-80 96 -90 96 -3 0 -27 -22 -53 -48z"/>
<path d="M2223 1976 c4 -10 7 -33 7 -51 0 -29 4 -34 30 -40 17 -4 57 -27 90
-52 49 -37 58 -48 49 -59 -24 -29 -108 -84 -137 -90 -28 -6 -30 -10 -34 -56
l-3 -50 29 6 c16 3 36 6 46 6 10 0 20 10 23 23 8 30 97 148 107 142 20 -12
100 -129 100 -145 0 -13 11 -19 48 -23 26 -3 48 -4 50 -3 1 2 -1 24 -4 49 -5
34 -11 47 -23 47 -19 0 -76 34 -121 73 -26 23 -30 30 -20 42 22 27 105 83 132
90 21 6 26 14 32 52 3 26 5 47 4 48 -2 1 -24 0 -49 -3 -41 -3 -48 -7 -52 -31
-5 -26 -85 -140 -99 -141 -13 0 -98 116 -104 142 -5 24 -11 28 -39 28 -18 0
-41 3 -51 7 -14 5 -16 3 -11 -11z"/>
<path d="M2170 1829 c-19 -22 -37 -44 -38 -50 -2 -5 17 -31 43 -56 l46 -47 45
48 c24 27 44 51 44 55 0 13 -81 91 -93 90 -7 0 -28 -18 -47 -40z"/>
<path d="M2578 1825 c-21 -23 -38 -46 -38 -51 0 -4 21 -28 47 -51 l47 -43 43
42 c23 24 43 48 43 55 0 15 -80 93 -95 92 -5 0 -27 -20 -47 -44z"/>
<path d="M2108 1667 c-21 -6 -38 -14 -38 -19 0 -5 16 -34 35 -64 33 -52 111
-114 142 -114 7 0 13 -4 13 -10 0 -5 -20 -10 -45 -10 -32 0 -51 -6 -65 -20
-37 -37 -26 -42 75 -34 109 8 131 -7 38 -26 -128 -25 -148 -33 -151 -63 -4
-32 7 -34 67 -12 23 8 64 17 91 21 42 6 50 4 50 -10 0 -9 -8 -16 -17 -17 -10
0 -61 -13 -113 -28 l-95 -27 -8 -43 c-5 -24 -6 -45 -4 -48 3 -2 31 9 63 25 48
24 130 54 212 78 8 2 12 25 12 67 0 36 7 83 15 106 13 38 13 42 -3 48 -113 38
-172 84 -203 158 -12 30 -25 54 -28 54 -3 -1 -23 -6 -43 -12z"/>
<path d="M2377 1622 l-47 -48 50 -49 50 -49 45 44 c25 24 45 49 45 54 0 11
-80 96 -90 96 -3 0 -27 -22 -53 -48z"/>
<path d="M3560 1361 c-44 -10 -189 -91 -205 -114 -23 -33 -18 -38 18 -18 17
11 56 24 85 30 29 6 70 20 92 31 22 11 59 20 85 20 49 0 57 12 23 34 -30 18
-67 25 -98 17z"/>
<path d="M867 1054 c-3 -5 5 -22 18 -38 l23 -29 17 27 c10 15 16 29 13 31 -10
10 -66 17 -71 9z"/>
<path d="M3048 1024 c-4 -3 1 -18 10 -34 l17 -29 22 21 c33 31 29 48 -10 48
-19 0 -36 -3 -39 -6z"/>
<path d="M976 941 c-17 -7 -16 -10 13 -31 35 -24 50 -17 51 23 0 18 -29 22
-64 8z"/>
</g>
</svg>
